<svg xmlns="http://www.w3.org/2000/svg" viewBox="0 0 32 32"><defs><style>.cls-3{fill:#ffb74d}</style></defs><g id="e-commerce_solutions" data-name="e-commerce solutions"><path d="M30 6.75h-4a1 1 0 0 0-.95.68l-1.44 4.32H2a1 1 0 0 0-.83.44 1 1 0 0 0-.1.93l4 10a1 1 0 0 0 .93.63h15a1 1 0 0 0 .95-.68c.49-1.48-1.77 5.3 4.77-14.32H30a1 1 0 0 0 0-2z" style="fill:#ffe082"/><path d="m11.29 13.46-3-3A1 1 0 0 1 9.71 9L12 11.34l6.79-6.8A1 1 0 1 1 20.21 6l-7.5 7.5a1 1 0 0 1-1.42-.04z" style="fill:#039be5"/><circle class="cls-3" cx="9" cy="25.75" r="1"/><circle class="cls-3" cx="16" cy="25.75" r="1"/></g></svg>