<?xml version="1.0" encoding="UTF-8"?>
<svg enable-background="new 0 0 370.404 370.404" version="1.1" viewBox="0 0 370.4 370.4" xml:space="preserve" xmlns="http://www.w3.org/2000/svg">

	<path d="m354.08 269.08c8.977 0 16.322-7.345 16.322-16.322v-206.74c0-8.977-7.345-20.674-16.322-20.674h-309.03c-8.977 0-16.322 7.345-16.322 16.322v211.1c0 8.977 7.345 16.322 16.322 16.322h309.03z" fill="#A4A9AD"/>
	<path d="m335.95 269.08c8.978 0 16.322-7.345 16.322-16.322v-211.1c0-8.977-7.345-16.322-16.322-16.322h-309.03c-8.977 0-16.322 7.345-16.322 16.322v211.1c0 8.977 7.345 16.322 16.322 16.322h309.03z" fill="#C3C6C8"/>
	<path d="m335.95 25.335h-309.03c-8.977 0-16.322 7.345-16.322 16.322v197.76h341.67v-197.76c1e-3 -8.977-7.344-16.322-16.322-16.322z" fill="#333E48"/>
	<rect x="32.36" y="47.098" width="298.15" height="170.56" fill="#fff"/>
	
		<rect x="55.651" y="73.591" width="251.56" height="29.771" fill="#FF8189"/>
		<rect x="55.651" y="121.31" width="91.529" height="63.5" fill="#F6C65B"/>
		<rect x="164.45" y="127.97" width="63.77" height="17.676" fill="#009BDE"/>
		<rect x="243.44" y="127.97" width="63.77" height="17.676" fill="#C3C6C8"/>
		<rect x="164.45" y="160.47" width="63.77" height="17.676" fill="#C3C6C8"/>
		<rect x="243.44" y="160.47" width="63.77" height="17.676" fill="#C3C6C8"/>
	
	
		<polygon points="172.72 327.92 251.07 327.92 231.48 269.08 153.14 269.08" fill="#B3B8BA"/>
		<path d="m146.07 327.92c-2.98 0-5.396 2.416-5.396 5.396s2.416 5.396 5.396 5.396h77.801v-10.791h-77.801v-1e-3z" fill="#C3C6C8"/>
		<path d="m254.12 338.71c4.838 0 8.761-3.923 8.761-8.761 0-1.018-0.173-1.995-0.492-2.903l-2e-3 -2e-3 -19.294-57.97h-11.607l19.587 58.846h-27.203c-2.98 0-5.396 2.416-5.396 5.396s2.416 5.396 5.396 5.396h30.294-0.044v-2e-3z" fill="#A4A9AD"/>
	
	<circle cx="181.43" cy="254.56" r="8.161" fill="#333E48"/>
	
		<rect y="334.28" width="143.63" height="10.79" fill="#D1D3D3"/>
		<path d="m197.31 345.07c2.98 0 5.396-2.415 5.396-5.395s-2.417-5.395-5.396-5.395h-53.679v10.79h53.679z" fill="#B3B8BA"/>
		<rect x="173.17" y="332.47" width="14.303" height="1.813" fill="#A4A9AD"/>
		<rect x="151.22" y="332.47" width="14.303" height="1.813" fill="#A4A9AD"/>
		<rect x="129.28" y="332.47" width="14.303" height="1.813" fill="#B3B8BA"/>
		<rect x="107.34" y="332.47" width="14.303" height="1.813" fill="#B3B8BA"/>
		<rect x="85.393" y="332.47" width="14.303" height="1.813" fill="#B3B8BA"/>
		<rect x="63.449" y="332.47" width="14.303" height="1.813" fill="#B3B8BA"/>
		<rect x="41.505" y="332.47" width="14.303" height="1.813" fill="#B3B8BA"/>
		<rect x="19.561" y="332.47" width="14.303" height="1.813" fill="#B3B8BA"/>
	
	
		
			<path d="m295.19 345.07c0-7.023-5.694-12.716-12.717-12.716h-18.689c-7.022 0-12.716 5.693-12.716 12.716h44.122z" fill="#D1D3D3"/>
		
		
			<path d="m308.99 345.07c0-7.023-5.694-12.716-12.717-12.716h-14.87c-7.023 0-12.717 5.693-12.717 12.716h40.304z" fill="#C3C6C8"/>
		
	
















</svg>
