<svg xmlns="http://www.w3.org/2000/svg" viewBox="0 0 300 300" xml:space="preserve"><path fill="#7FD3B9" d="m248.92 160.76-28.978 37.661h10.76v80.702h37.661v-80.702h10.76z"/><path fill="#BBEAD9" d="m248.92 160.76-28.978 37.661h10.76l23.708-30.815zM230.702 198.421h10.76v80.702h-10.76z"/><path fill="#7FD3B9" d="M49.856 106.959 20.878 144.62h10.76v59.181h37.661V144.62h10.76z"/><path fill="#BBEAD9" d="M49.856 106.959 20.878 144.62h10.76l23.708-30.815zM31.638 144.62h10.76v59.181h-10.76z"/><path fill="#7FD3B9" d="M152.078 20.877 123.1 58.538h10.76v25.611c5.748-2.603 12.111-4.09 18.83-4.09 6.72 0 13.082 1.487 18.83 4.09V58.538h10.76l-30.202-37.661z"/><path fill="#BBEAD9" d="M152.078 20.877 123.1 58.538h10.76l23.708-30.814zM144.62 80.844V58.538h-10.76v25.611c3.383-1.532 7.001-2.622 10.76-3.305z"/><circle transform="rotate(-45.001 152.69 125.792)" fill="#FFDA88" cx="152.69" cy="125.79" r="45.731"/><path fill="#FFE2A9" d="M117.72 125.789c0-23.433 17.635-42.72 40.351-45.387-1.768-.208-3.557-.344-5.38-.344-25.256 0-45.731 20.475-45.731 45.731s20.475 45.731 45.731 45.731c1.823 0 3.612-.137 5.38-.344-22.716-2.666-40.351-21.953-40.351-45.387z"/><path fill="#7FD3B9" d="M187.661 279.123c0-21.52-15.657-34.971-34.971-34.971s-34.971 13.45-34.971 34.971h69.942z"/><path fill="#FFC67B" d="M152.69 171.52c-2.745 0-5.425-.252-8.07-.615v74.098a39.462 39.462 0 0 1 8.07-.851c2.782 0 5.475.31 8.07.851v-74.098c-2.645.363-5.324.615-8.07.615z"/><path fill="#7FD3B9" d="M144.62 206.833c-2.449-3.728-5.249-7.358-8.222-10.332-10.508-10.503-17.357-10.542-21.56-6.341-4.204 4.203-4.164 11.052 6.341 21.56 6.604 6.604 16.424 12.415 23.441 15.195v-20.082zM193.758 190.159c-4.203-4.201-11.052-4.161-21.56 6.341-4.382 4.384-8.406 10.182-11.438 15.641v15.881c6.904-1.995 18.956-8.607 26.656-16.303 10.506-10.508 10.546-17.357 6.342-21.56z"/><path fill="#FE6F80" d="M166.7 129.809c-1.106-1.944-2.469-3.463-4.101-4.576-1.631-1.098-4.043-2.333-7.232-3.683-4.358-1.75-6.525-3.835-6.525-6.231 0-1.214.417-2.259 1.256-3.147.84-.857 1.846-1.308 3.003-1.308 1.513 0 3.993 1.019 7.424 3.047l4.752-7.745c-2.105-3.047-4.516-4.98-9.896-4.687v-3.478c0-1.808-1.413-3.273-5.38-3.273-3.967 0-5.38 1.466-5.38 3.273v4.009s-1.952.673-4.421 3.242c-2.708 2.806-3.223 7.537-3.223 10.781 0 6.505 5.422 9.31 6.71 10.287 1.282.978 3.384 2.118 5.937 3.221 5.243 2.243 7.668 4.019 7.668 6.562 0 1.224-.562 2.407-1.721 3.526-1.164 1.124-2.367 1.597-3.628 1.691-3.549.247-6.48-2.248-10.565-5.259l-5.52 7.692c3.743 4.429 8.764 6.431 8.764 6.525v3.268c0 1.812 1.923 3.273 5.38 3.273 3.252 0 5.38-1.461 5.38-3.273v-3.268c0-.042 4.54-.61 7.618-3.263 3.032-2.622 5.301-6.678 5.301-10.85-.001-2.284-.5-4.391-1.601-6.356z"/><g><path fill="#BBEAD9" d="M158.07 244.551c-1.758-.242-3.547-.399-5.38-.399-19.314 0-34.971 13.45-34.971 34.971h10.76c.001-19.477 12.839-32.307 29.591-34.572z"/></g><g><path fill="#FFD39F" d="M150 171.405a67.054 67.054 0 0 1-5.38-.499v74.098c1.744-.363 3.549-.572 5.38-.704v-72.895z"/></g><g><path fill="#161616" d="M268.363 284.503h-37.661a5.38 5.38 0 0 1-5.38-5.38v-75.321h-5.38a5.382 5.382 0 0 1-4.264-8.662l28.978-37.661a5.379 5.379 0 0 1 4.209-2.099c1.497-.094 3.218.725 4.253 2.015l30.203 37.661a5.38 5.38 0 0 1-4.198 8.746h-5.38v75.321a5.38 5.38 0 0 1-5.38 5.38zm-32.281-10.761h26.901v-75.321a5.378 5.378 0 0 1 4.944-5.362l-18.92-23.59-18.14 23.575a5.38 5.38 0 0 1 5.215 5.378v75.32zM171.521 89.529c-.754 0-1.51-.158-2.22-.478a40.143 40.143 0 0 0-33.221 0 5.368 5.368 0 0 1-5.136-.381 5.376 5.376 0 0 1-2.464-4.521V63.918h-5.38a5.382 5.382 0 0 1-4.264-8.662l28.979-37.661a5.378 5.378 0 0 1 4.208-2.099c1.71.029 3.218.728 4.253 2.015l30.203 37.661a5.382 5.382 0 0 1-4.198 8.746h-5.38v20.231a5.376 5.376 0 0 1-5.38 5.38zm-18.831-14.85c4.576 0 9.076.609 13.45 1.815V58.538a5.378 5.378 0 0 1 4.944-5.362l-18.92-23.591-18.139 23.575a5.38 5.38 0 0 1 5.215 5.378v17.956a50.466 50.466 0 0 1 13.45-1.815zM187.661 284.503H117.72a5.38 5.38 0 0 1-5.38-5.38c0-23.38 16.97-40.351 40.351-40.351 23.38 0 40.351 16.97 40.351 40.351a5.382 5.382 0 0 1-5.381 5.38zm-64.157-10.761h58.372c-2.246-14.496-13.618-24.21-29.186-24.21-15.567 0-26.94 9.715-29.186 24.21z"/><path fill="#161616" d="M160.76 250.383c-.365 0-.733-.037-1.098-.113-4.697-.977-9.247-.977-13.944 0a5.384 5.384 0 0 1-6.478-5.267v-74.097c0-1.555.673-3.031 1.844-4.053a5.32 5.32 0 0 1 4.266-1.277c5.627.772 9.053.772 14.68 0a5.326 5.326 0 0 1 4.266 1.277 5.375 5.375 0 0 1 1.844 4.053v74.097a5.384 5.384 0 0 1-5.38 5.38zm-8.07-11.611c.89 0 1.789.029 2.69.084v-62.024a54.236 54.236 0 0 1-5.38 0v62.024c.901-.055 1.8-.084 2.69-.084z"/><path fill="#161616" d="M144.62 232.294c-.67 0-1.342-.123-1.981-.378-7.313-2.895-17.961-9.089-25.264-16.393-15.447-15.449-10.603-24.907-6.342-29.168 4.258-4.264 13.71-9.108 29.168 6.339 3.037 3.04 6.037 6.801 8.916 11.186.575.877.883 1.902.883 2.953v20.081a5.383 5.383 0 0 1-5.38 5.38zm-23.533-39.306c-.927 0-1.763.292-2.446.977-3.31 3.307 2.553 10.159 6.342 13.949 4.006 4.004 9.342 7.684 14.257 10.432v-9.875c-2.18-3.179-4.461-5.982-6.646-8.167-3.008-3.005-7.942-7.316-11.507-7.316zM160.76 233.402a5.375 5.375 0 0 1-5.38-5.38v-15.88c0-.914.234-1.813.678-2.611 3.617-6.515 7.997-12.494 12.334-16.834 15.449-15.436 24.901-10.605 29.17-6.344v.003c4.261 4.261 9.105 13.718-6.342 29.168-8.498 8.496-21.268 15.444-28.968 17.669a5.396 5.396 0 0 1-1.492.209zm5.381-19.842v6.502c5.858-2.898 12.691-7.369 17.472-12.147 3.788-3.791 9.649-10.642 6.341-13.952-3.302-3.31-10.161 2.553-13.952 6.344-3.391 3.392-6.861 8.062-9.861 13.253zM166.7 129.809c-1.106-1.944-2.469-3.463-4.101-4.576-1.631-1.098-4.043-2.333-7.232-3.683-4.358-1.75-6.525-3.835-6.525-6.231 0-1.214.417-2.259 1.256-3.147.84-.857 1.846-1.308 3.003-1.308 1.513 0 3.993 1.019 7.424 3.047l4.752-7.745c-2.105-3.047-4.516-4.98-9.896-4.687v-3.478c0-1.808-1.413-3.273-5.38-3.273-3.967 0-5.38 1.466-5.38 3.273v4.009s-1.952.673-4.421 3.242c-2.708 2.806-3.223 7.537-3.223 10.781 0 6.505 5.422 9.31 6.71 10.287 1.282.978 3.384 2.118 5.937 3.221 5.243 2.243 7.668 4.019 7.668 6.562 0 1.224-.562 2.407-1.721 3.526-1.164 1.124-2.367 1.597-3.628 1.691-3.549.247-6.48-2.248-10.565-5.259l-5.52 7.692c3.743 4.429 8.764 6.431 8.764 6.525v3.268c0 1.812 1.923 3.273 5.38 3.273 3.252 0 5.38-1.461 5.38-3.273v-3.268c0-.042 4.54-.61 7.618-3.263 3.032-2.622 5.301-6.678 5.301-10.85-.001-2.284-.5-4.391-1.601-6.356zM69.299 209.181H31.638a5.38 5.38 0 0 1-5.38-5.38v-16.14a5.38 5.38 0 0 1 10.76 0v10.76h26.901V144.62a5.378 5.378 0 0 1 4.944-5.362l-18.92-23.59-18.14 23.575a5.38 5.38 0 0 1 5.215 5.377v21.52a5.38 5.38 0 0 1-10.76 0V150h-5.38a5.382 5.382 0 0 1-4.264-8.662l28.979-37.661a5.378 5.378 0 0 1 4.208-2.099 5.35 5.35 0 0 1 4.253 2.015l30.203 37.661a5.385 5.385 0 0 1 .652 5.693 5.377 5.377 0 0 1-4.85 3.053h-5.38v53.801a5.38 5.38 0 0 1-5.38 5.38z"/><path fill="#161616" d="M152.69 176.901c-28.183 0-51.111-22.928-51.111-51.111 0-28.182 22.928-51.111 51.111-51.111 22.59 0 42.224 14.498 48.857 36.079a5.384 5.384 0 0 1-3.562 6.725c-2.842.854-5.853-.722-6.725-3.562-5.236-17.036-20.735-28.482-38.57-28.482-22.251 0-40.351 18.1-40.351 40.351 0 22.251 18.1 40.351 40.351 40.351 19.558 0 36.247-13.973 39.681-33.226.52-2.924 3.276-4.891 6.242-4.35a5.378 5.378 0 0 1 4.35 6.242c-4.35 24.39-25.492 42.094-50.273 42.094z"/></g></svg>