<svg xmlns="http://www.w3.org/2000/svg" viewBox="0 0 466 466" style="enable-background:new 0 0 466 466" xml:space="preserve"><path d="M372.7 236.5c-2.7-3.5-7.7-4.3-11.2-1.6-1.7 1.3-2.8 3.2-3.1 5.3l-4.4 31.1c-.1.4-.2.8-.4 1.2 8.2-10.8 14.7-22.8 19.6-35.4l-.5-.6zM346 278.2c-.4 0-.8 0-1.1-.1l-47.5-6.8c-4.4-.6-7.4-4.7-6.8-9.1l4.4-31.1c.6-4.4-2.4-8.4-6.8-9-2.1-.3-4.2.2-5.9 1.5l-25.2 18.9c-3.5 2.7-8.5 1.9-11.2-1.6l-28.8-38.4c-2.7-3.5-1.9-8.5 1.6-11.2l25.1-18.9c3.5-2.7 4.3-7.7 1.6-11.2-1.3-1.7-3.2-2.8-5.3-3.1l-31.1-4.4c-4.4-.6-7.4-4.7-6.8-9l6.8-47.5c.6-4.4 4.7-7.4 9-6.8l31.1 4.4c3.2.5 6.4-1.1 8-3.8 1.7-2.8 1.5-6.3-.5-8.9L238 56.9c-2.7-3.5-1.9-8.5 1.6-11.2l4.5-3.4c-7.3-.4-14.7-.2-22 .6-79 9-135.8 80.4-126.7 159.4 4.9 43 28.9 81.6 65.4 104.9 13.3 8.3 21.5 22.8 21.7 38.4V378c0 13.3 10.7 24 24 24h64c13.3 0 24-10.7 24-24v-31.7c.2-16 8.6-30.9 22.2-39.4 12.6-8.2 23.9-18.3 33.4-29.9-1.3.8-2.6 1.2-4.1 1.2zM246.5 378h-16v-24h16v24zm-16-40c0-21.2-13-40.1-32.8-47.7-57.6-22.5-86-87.5-63.5-145.1 8.7-22.3 24.4-41.2 44.6-54l8.5 13.5c-44.9 28.2-58.4 87.5-30.1 132.4 10.9 17.4 27.2 30.8 46.3 38.3 25.9 9.9 43 34.8 43 62.6h-16zm-24 104v8c0 8.8 7.2 16 16 16h32c8.8 0 16-7.2 16-16v-8h-64zm-50-128c-4.7-3.1-9.3-6.4-13.7-10-12.1 23.5-40.9 32.8-64.4 20.7-16-8.2-26-24.7-26-42.7 0-24.2 18.1-44.6 42-47.6-2.9-8.8-5.1-17.9-6.3-27.1l-1.4 6.7c-1.8 8.6-10.3 14.2-19 12.4-2.1-.4-4-1.3-5.8-2.5l-16.6-11.4L30.7 227l11.5 16.7c5 7.3 3.2 17.2-4.1 22.3-1.7 1.2-3.7 2-5.8 2.5l-19.9 4.2v19l19.9 4.2c8.6 1.8 14.2 10.3 12.4 19-.4 2.1-1.3 4-2.5 5.8L30.8 337l14.6 14.5L62 340.1c7.3-5 17.2-3.2 22.3 4.1 1.2 1.7 2 3.7 2.5 5.8l4.2 20h19l4.2-19.9c1.8-8.6 10.3-14.2 19-12.4 2.1.4 4 1.3 5.8 2.5l16.6 11.4 17.2-17.2c-3.1-8.4-8.8-15.6-16.3-20.4zm50 96h64v16h-64v-16zm231.8-272.1c-13.1-1.9-22.2-14-20.4-27.2.9-6.3 4.3-12 9.4-15.8l18.7-14-19.2-25.6-18.7 14.1c-10.6 8-25.6 5.8-33.6-4.8-3.8-5.1-5.5-11.5-4.6-17.8l3.3-23.2-31.7-4.5-3.3 23.2c-1.9 13.1-14 22.2-27.2 20.4-6.3-.9-12-4.3-15.8-9.4l-14.1-18.8-25.6 19.2 14.1 18.7c8 10.6 5.8 25.6-4.8 33.6-5.1 3.8-11.5 5.5-17.8 4.6l-23.2-3.3-4.5 31.7 23.2 3.3c13.1 1.9 22.2 14 20.4 27.2-.9 6.3-4.3 12-9.4 15.8l-18.7 14.1L254 225l18.7-14.1c10.6-8 25.6-5.8 33.6 4.8 3.8 5.1 5.5 11.5 4.6 17.8l-3.3 23.2 31.7 4.5 3.3-23.2c1.9-13.1 14-22.2 27.2-20.4 6.3.9 12 4.3 15.8 9.4l14.1 18.7 25.6-19.2-14.1-18.8c-8-10.6-5.8-25.6 4.8-33.6 5.1-3.8 11.5-5.5 17.8-4.6l23.2 3.3 4.5-31.7-23.2-3.2zm-97.9 50.2c-26.5 0-48-21.5-48-48s21.5-48 48-48 48 21.5 48 48-21.5 48-48 48zM390.5 298h56v16h-56v-16zm-13.1 54.1 10.2-12.3 48 40-10.2 12.3-48-40zm-34.9 9.9h16v56h-16v-56zM4.6 138.2l64-16 3.9 15.5-64 16-3.9-15.5zm13.2-81.7 9.3-13 56 40-9.3 13-56-40zM86.4 4l15.5-4 16.4 64-15.5 4L86.4 4z" /></svg>