<svg version="1.1" id="Icons" xmlns="http://www.w3.org/2000/svg" x="0" y="0" viewBox="0 0 32 32" style="enable-background:new 0 0 32 32" xml:space="preserve"><style>.st29{fill:#f7981c}</style><path class="st29" d="M6 21c-2.8 0-5 2.2-5 5s2.2 5 5 5 5-2.2 5-5-2.2-5-5-5zM5.8 1c-1.2 0-2.5.1-4 .3-.4.1-.8.5-.8 1v5.1c0 .3.1.6.4.8s.5.3.8.2C3.4 8.2 4.6 8 5.8 8c10 0 18.1 8.1 18.1 18.1 0 1.2-.1 2.4-.4 3.6-.1.3 0 .6.2.8.2.2.5.4.8.4h5.1c.5 0 .9-.4 1-.8.2-1.4.3-2.7.3-4C31 12.3 19.7 1 5.8 1z"/><path class="st29" d="M5.9 11c-1.4 0-2.8.2-4.1.6-.4.1-.7.5-.7 1V18c0 .3.2.7.5.8.3.2.7.2 1 .1 1.1-.5 2.2-.8 3.4-.8 4.4 0 8 3.6 8 8 0 1.2-.3 2.3-.8 3.4-.1.3-.1.7.1 1 .2.3.5.5.8.5h5.5c.4 0 .8-.3 1-.7.4-1.4.6-2.8.6-4.1C21 17.8 14.2 11 5.9 11z"/></svg>