<svg xmlns="http://www.w3.org/2000/svg">
	<g id="software-group1">
      <g xmlns="http://www.w3.org/2000/svg">
        <path d="M174.64,430.65c-.49,0-.89-.4-.89-.89s.4-.89,.89-.89,.89,.4,.89,.89-.4,.89-.89,.89h0Zm-3.56,0c-.49,0-.89-.4-.89-.89s.4-.89,.89-.89,.89,.4,.89,.89-.4,.89-.89,.89h0Zm-3.56,0c-.49,0-.89-.4-.89-.89s.4-.89,.89-.89,.89,.4,.89,.89-.4,.89-.89,.89h0Zm23.47-1.58c0-.66-.53-1.19-1.19-1.19h-23.62c-.66,0-1.19,.53-1.19,1.19v2.57h26v-2.57h0Z" style="fill: #fff;"/>
        <path d="M183.64,437.65c-1.39,0-2.51,1.12-2.51,2.51s1.12,2.51,2.51,2.51,2.51-1.12,2.51-2.51-1.12-2.51-2.51-2.51h0Z" style="fill: #fff;"/>
        <path d="M187.8,440.16c0,.28-.03,.55-.08,.82h0l.12,.07,.7,1.09-.87,1.51-1.3-.06-.21-.12h0c-.32,.24-.67,.44-1.06,.59v.27l-.47,.92c-.24,1.64-1,3.16-2.19,4.36-1.47,1.47-3.42,2.27-5.49,2.27s-4.02-.81-5.49-2.27c-3.03-3.03-3.03-7.95,0-10.98,1.47-1.47,3.42-2.27,5.49-2.27,1.1,0,2.17,.23,3.14,.66l.79,.04c.38-.34,.83-.61,1.31-.78l.57-1.1h1.75l.57,1.1c.49,.18,.93,.45,1.31,.78l1.28-.06,.87,1.51-.7,1.09-.08,.04c.02,.17,.03,.35,.03,.53h0Zm3.2,10.77v-18.1h-26v18.1c0,.66,.53,1.19,1.19,1.19h23.62c.66,0,1.19-.53,1.19-1.19h0Z" style="fill: #fff;"/>
        <path d="M180.9,448.32c-2.25,2.25-5.89,2.25-8.14,0-1.81-1.81-2.16-4.52-1.06-6.68-.58,1.96-.1,4.17,1.45,5.72,2.25,2.25,5.89,2.25,8.14,0,.44-.44,.79-.93,1.06-1.46-.26,.89-.75,1.72-1.45,2.42h0Zm1.27-4v-.27c-.19-.07-.38-.16-.55-.26-.18-.1-.34-.21-.5-.33h0l-.21,.12-.85,.04-.59,.08c.12,.77-.12,1.59-.71,2.19-.99,.99-2.6,.99-3.6,0-.99-.99-.99-2.6,0-3.6,.96-.96,2.49-.99,3.49-.1,.04-.03,.07-.06,.1-.08l.69-1.08,.12-.07c-.05-.26-.08-.54-.08-.82,0-.18,.01-.36,.03-.53l-.08-.04-.7-1.09,.29-.5c-2.25-.76-4.84-.24-6.63,1.55-2.52,2.52-2.52,6.61,0,9.13,2.52,2.52,6.61,2.52,9.13,0,.91-.91,1.49-2.02,1.74-3.19h-.49l-.6-1.15h0Z" style="fill: #fff;"/>
        <path d="M176.24,443.39c-.39,.39-.39,1.03,0,1.43,.39,.39,1.03,.39,1.43,0,.39-.39,.39-1.03,0-1.43-.39-.39-1.03-.39-1.43,0h0Z" style="fill: #fff;"/>
      </g>
    </g>
</svg>