<?xml version="1.0" encoding="iso-8859-1"?>
<!-- Generator: Adobe Illustrator 19.0.0, SVG Export Plug-In . SVG Version: 6.00 Build 0)  -->
<svg version="1.1" id="Layer_1" xmlns="http://www.w3.org/2000/svg" xmlns:xlink="http://www.w3.org/1999/xlink" x="0px" y="0px"
	 viewBox="0 0 512.003 512.003" style="enable-background:new 0 0 512.003 512.003;" xml:space="preserve">
<circle style="fill:#CF7B00;" cx="257.213" cy="28.991" r="28.991"/>
<path style="fill:#CF933C;" d="M228.217,28.991c0,16.012,12.98,28.991,28.991,28.991V0C241.198,0,228.217,12.98,228.217,28.991z"/>
<circle style="fill:#940009;" cx="256.001" cy="445.979" r="66.024"/>
<path style="fill:#FF0029;" d="M189.977,445.976c0,36.464,29.56,66.024,66.024,66.024V379.951
	C219.537,379.951,189.977,409.51,189.977,445.976z"/>
<path style="fill:#FF9800;" d="M466.898,401.879c-62.965-71.102-97.28-162.596-96.745-257.568c0.001-0.22,0.002-0.44,0.002-0.66
	c0-63.325-51.335-114.66-114.66-114.66s-114.66,51.335-114.66,114.66c0,0.324,0.001,0.649,0.004,0.972
	c0.786,94.597-33.258,186.213-95.729,257.253l-0.003,0.003L466.898,401.879L466.898,401.879z"/>
<path style="fill:#F7DC4D;" d="M256.001,28.998c-0.169,0-0.338-0.007-0.507-0.007c-63.325,0-114.66,51.336-114.66,114.66
	c0,0.324,0.001,0.649,0.004,0.972c0.786,94.597-33.258,186.213-95.729,257.253l-0.003,0.003h210.895V28.998z"/>
<path style="fill:#E5BF2B;" d="M453.58,445.976H58.423c-16.546,0-29.96-13.414-29.96-29.96l0,0c0-16.546,13.414-29.96,29.96-29.96
	H453.58c16.546,0,29.96,13.414,29.96,29.96l0,0C483.54,432.562,470.126,445.976,453.58,445.976z"/>
<path style="fill:#005A95;" d="M412.621,322.486c-12.92-25.161-22.999-51.667-30.1-79.04H128.771
	c-7.012,27.356-16.997,53.868-29.81,79.04H412.621z"/>
<path style="fill:#31AAEF;" d="M256.001,243.446H128.982c-7.012,27.356-16.997,53.869-29.811,79.04h156.829V243.446z"/>
<path style="fill:#F9ED9D;" d="M256.001,386.056H58.423c-16.546,0-29.96,13.414-29.96,29.96l0,0c0,16.546,13.414,29.96,29.96,29.96
	h197.579v-59.919H256.001z"/>
<g>
</g>
<g>
</g>
<g>
</g>
<g>
</g>
<g>
</g>
<g>
</g>
<g>
</g>
<g>
</g>
<g>
</g>
<g>
</g>
<g>
</g>
<g>
</g>
<g>
</g>
<g>
</g>
<g>
</g>
</svg>
